<?xml version="1.0" encoding="UTF-8"?>
<svg xmlns="http://www.w3.org/2000/svg" xmlns:xlink="http://www.w3.org/1999/xlink" width="300px" height="298px" viewBox="0 0 299 298" version="1.1">
<defs>
<filter id="alpha" filterUnits="objectBoundingBox" x="0%" y="0%" width="100%" height="100%">
  <feColorMatrix type="matrix" in="SourceGraphic" values="0 0 0 0 1 0 0 0 0 1 0 0 0 0 1 0 0 0 1 0"/>
</filter>
<mask id="mask0">
  <g filter="url(#alpha)">
<rect x="0" y="0" width="299" height="298" style="fill:rgb(0%,0%,0%);fill-opacity:0.14902;stroke:none;"/>
  </g>
</mask>
<clipPath id="clip1">
  <rect x="0" y="0" width="299" height="298"/>
</clipPath>
<g id="surface5" clip-path="url(#clip1)">
<path style=" stroke:none;fill-rule:nonzero;fill:rgb(0%,0%,0%);fill-opacity:1;" d="M 168.582031 127.476562 L 167.117188 111.960938 L 174.429688 107.984375 L 174.910156 108.871094 L 168.175781 112.53125 L 169.539062 126.910156 L 184.496094 137.179688 L 183.929688 138.007812 Z M 168.582031 127.476562 "/>
</g>
<mask id="mask1">
  <g filter="url(#alpha)">
<rect x="0" y="0" width="299" height="298" style="fill:rgb(0%,0%,0%);fill-opacity:0.14902;stroke:none;"/>
  </g>
</mask>
<clipPath id="clip2">
  <rect x="0" y="0" width="299" height="298"/>
</clipPath>
<g id="surface8" clip-path="url(#clip2)">
<path style=" stroke:none;fill-rule:nonzero;fill:rgb(0%,0%,0%);fill-opacity:1;" d="M 183.945312 127.765625 L 184.539062 126.953125 L 199.632812 138.132812 L 199.035156 138.941406 Z M 183.945312 127.765625 "/>
</g>
<mask id="mask2">
  <g filter="url(#alpha)">
<rect x="0" y="0" width="299" height="298" style="fill:rgb(0%,0%,0%);fill-opacity:0.101961;stroke:none;"/>
  </g>
</mask>
<clipPath id="clip3">
  <rect x="0" y="0" width="299" height="298"/>
</clipPath>
<g id="surface11" clip-path="url(#clip3)">
<path style=" stroke:none;fill-rule:nonzero;fill:rgb(0%,0%,0%);fill-opacity:1;" d="M 191.261719 107.292969 L 200.378906 106.765625 L 236.796875 151.757812 L 223.929688 149.785156 L 216.308594 148.628906 C 214.886719 147.40625 213.601562 146.03125 212.484375 144.523438 L 204.015625 142.003906 L 200.117188 139.117188 C 200.363281 140.054688 191.261719 107.292969 191.261719 107.292969 Z M 191.261719 107.292969 "/>
</g>
<mask id="mask3">
  <g filter="url(#alpha)">
<rect x="0" y="0" width="299" height="298" style="fill:rgb(0%,0%,0%);fill-opacity:0.14902;stroke:none;"/>
  </g>
</mask>
<clipPath id="clip4">
  <rect x="0" y="0" width="299" height="298"/>
</clipPath>
<g id="surface14" clip-path="url(#clip4)">
<path style=" stroke:none;fill-rule:nonzero;fill:rgb(0%,0%,0%);fill-opacity:1;" d="M 138.5625 111.972656 C 138.597656 111.96875 142.066406 111.535156 143.546875 108.988281 C 144.542969 107.273438 144.445312 104.964844 143.25 102.125 L 144.175781 101.734375 C 145.5 104.882812 145.578125 107.5 144.410156 109.503906 C 142.671875 112.484375 138.839844 112.953125 138.679688 112.972656 Z M 138.5625 111.972656 "/>
</g>
<mask id="mask4">
  <g filter="url(#alpha)">
<rect x="0" y="0" width="299" height="298" style="fill:rgb(0%,0%,0%);fill-opacity:0.14902;stroke:none;"/>
  </g>
</mask>
<clipPath id="clip5">
  <rect x="0" y="0" width="299" height="298"/>
</clipPath>
<g id="surface17" clip-path="url(#clip5)">
<path style=" stroke:none;fill-rule:nonzero;fill:rgb(0%,0%,0%);fill-opacity:1;" d="M 173.632812 105.175781 L 173.628906 104.167969 L 191.484375 104.140625 L 172.660156 92.339844 L 173.191406 91.488281 L 194.976562 105.140625 Z M 173.632812 105.175781 "/>
</g>
</defs>
<g id="surface1">
<path style=" stroke:none;fill-rule:nonzero;fill:rgb(24.705882%,23.921569%,33.72549%);fill-opacity:1;" d="M 198.765625 297.9375 L 16.3125 297.9375 C 7.308594 297.925781 0.0117188 290.613281 0 281.585938 L 0 16.351562 C 0.0117188 7.324219 7.308594 0.0117188 16.3125 0 L 198.765625 0 C 207.769531 0.0117188 215.066406 7.324219 215.078125 16.351562 L 215.078125 281.585938 C 215.066406 290.613281 207.769531 297.925781 198.765625 297.9375 Z M 198.765625 297.9375 "/>
<path style=" stroke:none;fill-rule:nonzero;fill:rgb(100%,100%,100%);fill-opacity:1;" d="M 199.085938 287.503906 L 15.988281 287.503906 C 13.214844 287.503906 10.964844 285.246094 10.960938 282.464844 L 10.960938 15.472656 C 10.964844 12.691406 13.214844 10.433594 15.988281 10.433594 L 199.085938 10.433594 C 201.863281 10.433594 204.113281 12.691406 204.113281 15.472656 L 204.113281 282.464844 C 204.113281 285.246094 201.863281 287.503906 199.085938 287.503906 Z M 199.085938 287.503906 "/>
<path style=" stroke:none;fill-rule:nonzero;fill:rgb(100%,100%,100%);fill-opacity:1;" d="M 108.230469 5.007812 C 108.230469 5.777344 107.609375 6.398438 106.84375 6.398438 C 106.078125 6.398438 105.457031 5.777344 105.457031 5.007812 C 105.457031 4.238281 106.078125 3.617188 106.84375 3.617188 C 107.609375 3.617188 108.230469 4.238281 108.230469 5.007812 Z M 108.230469 5.007812 "/>
<path style=" stroke:none;fill-rule:nonzero;fill:rgb(100%,71.764706%,71.764706%);fill-opacity:1;" d="M 156.378906 123.34375 L 150.316406 105.148438 L 150.214844 104.832031 L 175.738281 88.667969 L 177.097656 90.5 L 184.207031 100.097656 L 181.609375 107.859375 L 174.890625 127.910156 L 174.597656 128.792969 L 187.035156 138.0625 C 187.527344 138.972656 187.9375 139.804688 188.269531 140.570312 C 191.984375 149.050781 186.488281 148.664062 186.488281 148.664062 L 161.191406 137.796875 Z M 156.378906 123.34375 "/>
<path style=" stroke:none;fill-rule:nonzero;fill:rgb(100%,71.764706%,71.764706%);fill-opacity:1;" d="M 169.769531 126.734375 L 168.65625 123.382812 L 163.183594 106.9375 L 162.042969 103.511719 L 161.082031 100.640625 L 173.566406 92.734375 L 186.609375 84.480469 L 195.074219 95.90625 L 192.511719 103.570312 L 191.261719 107.292969 L 189.335938 113.054688 L 185.464844 124.601562 L 197.90625 133.871094 C 198.847656 135.527344 199.589844 137.285156 200.117188 139.117188 C 200.335938 139.878906 200.4375 140.671875 200.421875 141.464844 C 200.464844 142.285156 200.152344 143.085938 199.566406 143.660156 C 198.980469 144.238281 198.175781 144.53125 197.355469 144.476562 L 172.058594 133.605469 Z M 169.769531 126.734375 "/>
<use xlink:href="#surface5" mask="url(#mask0)"/>
<use xlink:href="#surface8" mask="url(#mask1)"/>
<path style=" stroke:none;fill-rule:nonzero;fill:rgb(100%,100%,100%);fill-opacity:1;" d="M 183.640625 142.160156 L 107.710938 88.652344 L 31.003906 141.660156 L 106.566406 173.644531 Z M 183.640625 142.160156 "/>
<path style=" stroke:none;fill-rule:nonzero;fill:rgb(100%,71.764706%,71.764706%);fill-opacity:1;" d="M 129.277344 96.746094 L 154.847656 71.683594 L 200.574219 68.589844 L 257.417969 123 L 298.832031 145.71875 L 287.164062 180.113281 L 237.175781 156.324219 C 227 155.578125 220.453125 152.191406 216.308594 148.628906 C 214.886719 147.40625 213.601562 146.03125 212.484375 144.523438 C 211.257812 142.921875 210.300781 141.132812 209.652344 139.226562 L 189.335938 113.054688 L 185.144531 107.652344 L 182.433594 104.160156 L 173.566406 92.734375 L 172.925781 91.914062 L 157.859375 91.515625 L 150.019531 101.832031 L 144.511719 109.074219 C 144.386719 111.625 143.464844 114.070312 141.886719 116.074219 C 136.945312 122.09375 126.933594 120.917969 126.933594 120.917969 Z M 129.277344 96.746094 "/>
<path style=" stroke:none;fill-rule:nonzero;fill:rgb(100%,100%,100%);fill-opacity:1;" d="M 31.296875 141.613281 L 31.351562 141.613281 L 62.710938 155.035156 L 105.617188 173.402344 C 105.957031 173.542969 106.339844 173.546875 106.679688 173.40625 L 150.945312 154.996094 L 183.074219 141.632812 L 183.125 141.613281 L 183.179688 141.613281 C 184.234375 141.613281 185.089844 142.472656 185.089844 143.53125 L 185.089844 226.773438 C 185.089844 227.832031 184.234375 228.6875 183.179688 228.6875 L 31.296875 228.6875 C 30.242188 228.6875 29.386719 227.832031 29.386719 226.773438 L 29.386719 143.53125 C 29.386719 142.472656 30.242188 141.613281 31.296875 141.613281 Z M 31.296875 141.613281 "/>
<path style=" stroke:none;fill-rule:nonzero;fill:rgb(24.705882%,23.921569%,33.72549%);fill-opacity:1;" d="M 31.160156 142.160156 C 31.214844 142.160156 31.269531 142.144531 31.316406 142.109375 L 106.863281 89.371094 C 107.335938 89.042969 107.960938 89.046875 108.429688 89.375 L 183.433594 142.109375 C 183.554688 142.195312 183.726562 142.167969 183.8125 142.042969 C 183.898438 141.917969 183.867188 141.75 183.746094 141.664062 L 108.742188 88.925781 C 108.085938 88.464844 107.210938 88.464844 106.550781 88.921875 L 31.003906 141.660156 C 30.90625 141.730469 30.863281 141.855469 30.898438 141.96875 C 30.9375 142.082031 31.042969 142.160156 31.160156 142.160156 Z M 31.160156 142.160156 "/>
<path style=" stroke:none;fill-rule:nonzero;fill:rgb(90.196078%,90.196078%,90.196078%);fill-opacity:1;" d="M 179.144531 144.03125 L 107.574219 90.855469 L 35.457031 147.8125 L 103.886719 188.476562 L 141.035156 179.988281 Z M 179.144531 144.03125 "/>
<path style=" stroke:none;fill-rule:nonzero;fill:rgb(0%,74.901961%,65.098039%);fill-opacity:1;" d="M 137.898438 213.59375 L 173.257812 213.59375 C 174.171875 213.59375 174.910156 212.851562 174.910156 211.9375 C 174.914062 211.023438 174.175781 210.28125 173.265625 210.28125 L 137.898438 210.28125 C 136.988281 210.28125 136.25 211.019531 136.246094 211.933594 C 136.246094 212.847656 136.984375 213.589844 137.894531 213.59375 Z M 137.898438 213.59375 "/>
<path style=" stroke:none;fill-rule:nonzero;fill:rgb(0%,74.901961%,65.098039%);fill-opacity:1;" d="M 160.574219 206.472656 L 173.257812 206.472656 C 174.171875 206.472656 174.910156 205.734375 174.910156 204.820312 C 174.914062 203.90625 174.175781 203.164062 173.265625 203.160156 L 160.574219 203.160156 C 159.660156 203.160156 158.921875 203.902344 158.921875 204.816406 C 158.917969 205.726562 159.65625 206.46875 160.566406 206.472656 Z M 160.574219 206.472656 "/>
<path style=" stroke:none;fill-rule:nonzero;fill:rgb(100%,100%,100%);fill-opacity:1;" d="M 106.566406 173.644531 C 106.835938 173.644531 107.101562 173.59375 107.351562 173.492188 L 151.492188 155.132812 L 151.492188 97.664062 C 151.492188 96.605469 150.636719 95.746094 149.578125 95.746094 L 64.898438 95.746094 C 63.839844 95.746094 62.984375 96.605469 62.984375 97.664062 L 62.984375 155.171875 L 63.066406 155.207031 L 105.757812 173.484375 C 106.015625 173.589844 106.289062 173.644531 106.566406 173.644531 Z M 106.566406 173.644531 "/>
<path style=" stroke:none;fill-rule:nonzero;fill:rgb(24.705882%,23.921569%,33.72549%);fill-opacity:1;" d="M 105.703125 173.609375 L 62.847656 155.261719 L 62.847656 97.664062 C 62.847656 96.53125 63.765625 95.609375 64.898438 95.609375 L 149.578125 95.609375 C 150.710938 95.609375 151.625 96.53125 151.628906 97.664062 L 151.628906 155.222656 L 107.402344 173.617188 C 106.855469 173.839844 106.246094 173.835938 105.703125 173.609375 Z M 151.082031 97.664062 C 151.082031 96.832031 150.410156 96.160156 149.578125 96.15625 L 64.898438 96.15625 C 64.066406 96.160156 63.394531 96.832031 63.394531 97.664062 L 63.394531 154.902344 L 105.917969 173.105469 C 106.324219 173.277344 106.785156 173.277344 107.195312 173.113281 L 151.082031 154.859375 Z M 151.082031 97.664062 "/>
<path style=" stroke:none;fill-rule:nonzero;fill:rgb(24.705882%,23.921569%,33.72549%);fill-opacity:1;" d="M 29.792969 143.53125 L 29.792969 226.773438 C 29.796875 227.832031 30.652344 228.6875 31.707031 228.6875 L 183.589844 228.6875 C 184.644531 228.6875 185.5 227.832031 185.5 226.773438 L 185.5 143.53125 C 185.5 142.472656 184.644531 141.613281 183.589844 141.613281 L 183.535156 141.613281 L 183.484375 141.632812 L 151.355469 154.996094 L 107.089844 173.40625 C 106.746094 173.546875 106.367188 173.542969 106.027344 173.402344 L 63.121094 155.035156 L 31.761719 141.613281 L 31.707031 141.613281 C 30.652344 141.613281 29.796875 142.472656 29.792969 143.53125 Z M 30.339844 143.53125 C 30.34375 142.796875 30.921875 142.191406 31.652344 142.160156 L 63.121094 155.628906 L 105.8125 173.90625 C 106.285156 174.105469 106.820312 174.109375 107.296875 173.914062 L 151.355469 155.589844 L 183.640625 142.160156 C 184.375 142.191406 184.953125 142.792969 184.953125 143.53125 L 184.953125 226.773438 C 184.953125 227.527344 184.34375 228.140625 183.589844 228.140625 L 31.707031 228.140625 C 30.953125 228.140625 30.339844 227.527344 30.339844 226.773438 Z M 30.339844 143.53125 "/>
<path style=" stroke:none;fill-rule:nonzero;fill:rgb(0%,74.901961%,65.098039%);fill-opacity:1;" d="M 72.308594 117.230469 L 102.359375 117.230469 C 103.566406 117.230469 104.542969 116.25 104.542969 115.039062 C 104.542969 113.828125 103.566406 112.847656 102.359375 112.847656 L 72.308594 112.847656 C 71.101562 112.847656 70.125 113.828125 70.125 115.039062 C 70.125 116.25 71.101562 117.230469 72.308594 117.230469 Z M 72.308594 117.230469 "/>
<path style=" stroke:none;fill-rule:nonzero;fill:rgb(0%,74.901961%,65.098039%);fill-opacity:1;" d="M 72.328125 107.917969 L 86.804688 107.917969 C 88.011719 107.917969 88.992188 106.9375 88.992188 105.726562 C 88.992188 104.519531 88.011719 103.539062 86.804688 103.539062 L 72.328125 103.539062 C 71.121094 103.539062 70.144531 104.519531 70.144531 105.726562 C 70.144531 106.9375 71.121094 107.917969 72.328125 107.917969 Z M 72.328125 107.917969 "/>
<path style=" stroke:none;fill-rule:nonzero;fill:rgb(80%,80%,80%);fill-opacity:1;" d="M 84.765625 139.136719 L 130.65625 139.136719 C 131.863281 139.136719 132.84375 138.152344 132.84375 136.945312 C 132.84375 135.734375 131.863281 134.753906 130.65625 134.753906 L 84.765625 134.753906 C 83.558594 134.753906 82.578125 135.734375 82.578125 136.945312 C 82.578125 138.152344 83.558594 139.136719 84.765625 139.136719 Z M 84.765625 139.136719 "/>
<path style=" stroke:none;fill-rule:nonzero;fill:rgb(80%,80%,80%);fill-opacity:1;" d="M 84.765625 149.265625 L 130.65625 149.265625 C 131.863281 149.265625 132.84375 148.285156 132.84375 147.074219 C 132.84375 145.867188 131.863281 144.886719 130.65625 144.886719 L 84.765625 144.886719 C 83.558594 144.886719 82.578125 145.867188 82.578125 147.074219 C 82.578125 148.285156 83.558594 149.265625 84.765625 149.265625 Z M 84.765625 149.265625 "/>
<use xlink:href="#surface11" mask="url(#mask2)"/>
<path style=" stroke:none;fill-rule:nonzero;fill:rgb(100%,71.764706%,71.764706%);fill-opacity:1;" d="M 133 105.863281 C 133.542969 102.359375 136.804688 99.953125 140.304688 100.476562 L 150.019531 101.832031 L 162.042969 103.511719 L 171.332031 104.804688 L 182.433594 104.160156 L 192.511719 103.570312 L 198.464844 103.226562 L 238.050781 152.128906 L 204.015625 142 L 200.117188 139.117188 L 183.058594 126.484375 C 183.058594 126.484375 177.46875 125.453125 168.65625 123.382812 C 167.34375 123.070312 152.507812 119.339844 145.539062 117.308594 C 144.191406 116.914062 142.980469 116.503906 141.886719 116.074219 C 134.117188 113.007812 132.5625 109.078125 133 105.863281 Z M 133 105.863281 "/>
<use xlink:href="#surface14" mask="url(#mask3)"/>
<use xlink:href="#surface17" mask="url(#mask4)"/>
</g>
</svg>
